<svg xmlns="http://www.w3.org/2000/svg" viewBox="0 0 80 64">
  <!-- Casa mejorada -->
  <g>
    <polygon points="40,10 14,32 66,32" fill="#fde68a" stroke="#f59e42" stroke-width="2.2"/>
    <rect x="20" y="32" width="40" height="22" rx="5" fill="#fbbf24" stroke="#f59e42" stroke-width="2.2"/>
    <rect x="36" y="44" width="8" height="10" rx="2" fill="#fff" stroke="#f59e42" stroke-width="1.5"/>
    <rect x="26" y="38" width="8" height="6" rx="1.5" fill="#fffde7" stroke="#f59e42" stroke-width="1"/>
    <rect x="46" y="38" width="8" height="6" rx="1.5" fill="#fffde7" stroke="#f59e42" stroke-width="1"/>
    <circle cx="30" cy="43" r="0.8" fill="#f59e42"/>
    <circle cx="50" cy="43" r="0.8" fill="#f59e42"/>
  </g>
  <!-- Lista de tareas -->
  <rect x="48" y="16" width="24" height="36" rx="4" fill="#fff" stroke="#38bdf8" stroke-width="2"/>
  <rect x="52" y="22" width="16" height="3" rx="1.5" fill="#bae6fd"/>
  <rect x="52" y="29" width="16" height="3" rx="1.5" fill="#bae6fd"/>
  <rect x="52" y="36" width="16" height="3" rx="1.5" fill="#bae6fd"/>
  <circle cx="54" cy="23.5" r="1.2" fill="#22c55e"/>
  <circle cx="54" cy="30.5" r="1.2" fill="#fbbf24"/>
  <circle cx="54" cy="37.5" r="1.2" fill="#ef4444"/>
  <text x="60" y="19.5" text-anchor="middle" font-size="7" fill="#38bdf8" font-family="Segoe UI, Arial, sans-serif" font-weight="bold">Tareas</text>
</svg>
